<mxfile host="app.diagrams.net" agent="Mozilla/5.0 (Windows NT 10.0; Win64; x64) AppleWebKit/537.36 (KHTML, like Gecko) Chrome/132.0.0.0 Safari/537.36" version="26.0.11">
  <diagram name="Page-1" id="b5b7bab2-c9e2-2cf4-8b2a-24fd1a2a6d21">
    <mxGraphModel dx="99" dy="457" grid="1" gridSize="10" guides="1" tooltips="1" connect="1" arrows="1" fold="1" page="1" pageScale="1" pageWidth="827" pageHeight="1169" background="none" math="0" shadow="0">
      <root>
        <mxCell id="0" />
        <mxCell id="1" parent="0" />
        <mxCell id="6e0c8c40b5770093-72" value="" style="shape=folder;fontStyle=1;spacingTop=10;tabWidth=194;tabHeight=22;tabPosition=left;html=1;rounded=0;shadow=0;comic=0;labelBackgroundColor=none;strokeWidth=1;fillColor=none;fontFamily=Verdana;fontSize=10;align=center;" parent="1" vertex="1">
          <mxGeometry x="2570" y="70" width="1001" height="940" as="geometry" />
        </mxCell>
        <mxCell id="6e0c8c40b5770093-6" value="" style="group" parent="1" vertex="1" connectable="0">
          <mxGeometry x="2709" y="130" width="130" height="70" as="geometry" />
        </mxCell>
        <mxCell id="6e0c8c40b5770093-4" value="package" style="shape=folder;fontStyle=1;spacingTop=10;tabWidth=50;tabHeight=17;tabPosition=left;html=1;rounded=0;shadow=0;comic=0;labelBackgroundColor=none;strokeWidth=1;fontFamily=Verdana;fontSize=10;align=center;" parent="6e0c8c40b5770093-6" vertex="1">
          <mxGeometry width="130" height="70" as="geometry" />
        </mxCell>
        <mxCell id="6e0c8c40b5770093-5" value="" style="triangle;whiteSpace=wrap;html=1;rounded=0;shadow=0;comic=0;labelBackgroundColor=none;strokeWidth=1;fontFamily=Verdana;fontSize=10;align=center;rotation=-90;" parent="6e0c8c40b5770093-6" vertex="1">
          <mxGeometry x="100" y="25" width="15" height="20" as="geometry" />
        </mxCell>
        <mxCell id="6e0c8c40b5770093-7" value="" style="group" parent="1" vertex="1" connectable="0">
          <mxGeometry x="3009" y="130" width="130" height="70" as="geometry" />
        </mxCell>
        <mxCell id="6e0c8c40b5770093-8" value="package" style="shape=folder;fontStyle=1;spacingTop=10;tabWidth=50;tabHeight=17;tabPosition=left;html=1;rounded=0;shadow=0;comic=0;labelBackgroundColor=none;strokeWidth=1;fontFamily=Verdana;fontSize=10;align=center;" parent="6e0c8c40b5770093-7" vertex="1">
          <mxGeometry width="130" height="70" as="geometry" />
        </mxCell>
        <mxCell id="6e0c8c40b5770093-9" value="" style="triangle;whiteSpace=wrap;html=1;rounded=0;shadow=0;comic=0;labelBackgroundColor=none;strokeWidth=1;fontFamily=Verdana;fontSize=10;align=center;rotation=-90;" parent="6e0c8c40b5770093-7" vertex="1">
          <mxGeometry x="100" y="25" width="15" height="20" as="geometry" />
        </mxCell>
        <mxCell id="6e0c8c40b5770093-18" value="" style="group" parent="1" vertex="1" connectable="0">
          <mxGeometry x="2605" y="250" width="280" height="130" as="geometry" />
        </mxCell>
        <mxCell id="6e0c8c40b5770093-11" value="" style="shape=folder;fontStyle=1;spacingTop=10;tabWidth=123;tabHeight=24;tabPosition=left;html=1;rounded=0;shadow=0;comic=0;labelBackgroundColor=none;strokeWidth=1;fontFamily=Verdana;fontSize=10;align=center;" parent="6e0c8c40b5770093-18" vertex="1">
          <mxGeometry width="280" height="130" as="geometry" />
        </mxCell>
        <mxCell id="6e0c8c40b5770093-13" value="" style="triangle;whiteSpace=wrap;html=1;rounded=0;shadow=0;comic=0;labelBackgroundColor=none;strokeWidth=1;fontFamily=Verdana;fontSize=10;align=center;rotation=-90;" parent="6e0c8c40b5770093-18" vertex="1">
          <mxGeometry x="96" y="2" width="15" height="20" as="geometry" />
        </mxCell>
        <mxCell id="6e0c8c40b5770093-15" value="package" style="shape=folder;fontStyle=1;spacingTop=10;tabWidth=50;tabHeight=17;tabPosition=left;html=1;rounded=0;shadow=0;comic=0;labelBackgroundColor=none;strokeWidth=1;fontFamily=Verdana;fontSize=10;align=center;" parent="6e0c8c40b5770093-18" vertex="1">
          <mxGeometry x="18" y="40" width="112" height="70" as="geometry" />
        </mxCell>
        <mxCell id="6e0c8c40b5770093-17" value="package" style="shape=folder;fontStyle=1;spacingTop=10;tabWidth=50;tabHeight=17;tabPosition=left;html=1;rounded=0;shadow=0;comic=0;labelBackgroundColor=none;strokeWidth=1;fontFamily=Verdana;fontSize=10;align=center;" parent="6e0c8c40b5770093-18" vertex="1">
          <mxGeometry x="148" y="40" width="112" height="70" as="geometry" />
        </mxCell>
        <mxCell id="6e0c8c40b5770093-19" value="" style="group" parent="1" vertex="1" connectable="0">
          <mxGeometry x="2929" y="254" width="280" height="130" as="geometry" />
        </mxCell>
        <mxCell id="6e0c8c40b5770093-20" value="" style="shape=folder;fontStyle=1;spacingTop=10;tabWidth=123;tabHeight=24;tabPosition=left;html=1;rounded=0;shadow=0;comic=0;labelBackgroundColor=none;strokeWidth=1;fontFamily=Verdana;fontSize=10;align=center;" parent="6e0c8c40b5770093-19" vertex="1">
          <mxGeometry width="280" height="130" as="geometry" />
        </mxCell>
        <mxCell id="6e0c8c40b5770093-21" value="" style="triangle;whiteSpace=wrap;html=1;rounded=0;shadow=0;comic=0;labelBackgroundColor=none;strokeWidth=1;fontFamily=Verdana;fontSize=10;align=center;rotation=-90;" parent="6e0c8c40b5770093-19" vertex="1">
          <mxGeometry x="96" y="2" width="15" height="20" as="geometry" />
        </mxCell>
        <mxCell id="6e0c8c40b5770093-22" value="package" style="shape=folder;fontStyle=1;spacingTop=10;tabWidth=50;tabHeight=17;tabPosition=left;html=1;rounded=0;shadow=0;comic=0;labelBackgroundColor=none;strokeWidth=1;fontFamily=Verdana;fontSize=10;align=center;" parent="6e0c8c40b5770093-19" vertex="1">
          <mxGeometry x="18" y="40" width="112" height="70" as="geometry" />
        </mxCell>
        <mxCell id="6e0c8c40b5770093-23" value="package" style="shape=folder;fontStyle=1;spacingTop=10;tabWidth=50;tabHeight=17;tabPosition=left;html=1;rounded=0;shadow=0;comic=0;labelBackgroundColor=none;strokeWidth=1;fontFamily=Verdana;fontSize=10;align=center;" parent="6e0c8c40b5770093-19" vertex="1">
          <mxGeometry x="148" y="40" width="112" height="70" as="geometry" />
        </mxCell>
        <mxCell id="6e0c8c40b5770093-30" value="" style="group" parent="1" vertex="1" connectable="0">
          <mxGeometry x="3289" y="250" width="230" height="480" as="geometry" />
        </mxCell>
        <mxCell id="6e0c8c40b5770093-24" value="" style="group" parent="6e0c8c40b5770093-30" vertex="1" connectable="0">
          <mxGeometry width="230" height="480" as="geometry" />
        </mxCell>
        <mxCell id="6e0c8c40b5770093-25" value="" style="shape=folder;fontStyle=1;spacingTop=10;tabWidth=123;tabHeight=24;tabPosition=left;html=1;rounded=0;shadow=0;comic=0;labelBackgroundColor=none;strokeWidth=1;fontFamily=Verdana;fontSize=10;align=center;" parent="6e0c8c40b5770093-24" vertex="1">
          <mxGeometry width="230" height="480" as="geometry" />
        </mxCell>
        <mxCell id="6e0c8c40b5770093-29" value="" style="triangle;whiteSpace=wrap;html=1;rounded=0;shadow=0;comic=0;labelBackgroundColor=none;strokeWidth=1;fontFamily=Verdana;fontSize=10;align=center;rotation=-90;" parent="6e0c8c40b5770093-24" vertex="1">
          <mxGeometry x="100" y="2" width="15" height="20" as="geometry" />
        </mxCell>
        <mxCell id="6e0c8c40b5770093-27" value="package" style="shape=folder;fontStyle=1;spacingTop=10;tabWidth=50;tabHeight=17;tabPosition=left;html=1;rounded=0;shadow=0;comic=0;labelBackgroundColor=none;strokeWidth=1;fontFamily=Verdana;fontSize=10;align=center;" parent="6e0c8c40b5770093-24" vertex="1">
          <mxGeometry x="59" y="79" width="112" height="70" as="geometry" />
        </mxCell>
        <mxCell id="6e0c8c40b5770093-31" value="package" style="shape=folder;fontStyle=1;spacingTop=10;tabWidth=50;tabHeight=17;tabPosition=left;html=1;rounded=0;shadow=0;comic=0;labelBackgroundColor=none;strokeWidth=1;fontFamily=Verdana;fontSize=10;align=center;" parent="6e0c8c40b5770093-24" vertex="1">
          <mxGeometry x="59" y="205" width="112" height="70" as="geometry" />
        </mxCell>
        <mxCell id="6e0c8c40b5770093-28" value="package" style="shape=folder;fontStyle=1;spacingTop=10;tabWidth=50;tabHeight=17;tabPosition=left;html=1;rounded=0;shadow=0;comic=0;labelBackgroundColor=none;strokeWidth=1;fontFamily=Verdana;fontSize=10;align=center;" parent="6e0c8c40b5770093-24" vertex="1">
          <mxGeometry x="59" y="340" width="112" height="70" as="geometry" />
        </mxCell>
        <mxCell id="6e0c8c40b5770093-67" style="edgeStyle=none;rounded=0;html=1;entryX=0.43;entryY=0.173;entryPerimeter=0;dashed=1;labelBackgroundColor=none;startFill=0;endArrow=open;endFill=0;endSize=10;fontFamily=Verdana;fontSize=10;" parent="1" source="6e0c8c40b5770093-33" target="6e0c8c40b5770093-47" edge="1">
          <mxGeometry relative="1" as="geometry" />
        </mxCell>
        <mxCell id="6e0c8c40b5770093-71" style="edgeStyle=elbowEdgeStyle;rounded=0;html=1;dashed=1;labelBackgroundColor=none;startFill=0;endArrow=open;endFill=0;endSize=10;fontFamily=Verdana;fontSize=10;elbow=vertical;" parent="1" source="6e0c8c40b5770093-33" target="6e0c8c40b5770093-25" edge="1">
          <mxGeometry relative="1" as="geometry" />
        </mxCell>
        <mxCell id="6e0c8c40b5770093-33" value="" style="shape=folder;fontStyle=1;spacingTop=10;tabWidth=123;tabHeight=24;tabPosition=left;html=1;rounded=0;shadow=0;comic=0;labelBackgroundColor=none;strokeColor=#000000;strokeWidth=1;fillColor=#ffffff;fontFamily=Verdana;fontSize=10;fontColor=#000000;align=center;" parent="1" vertex="1">
          <mxGeometry x="2684" y="430" width="515" height="240" as="geometry" />
        </mxCell>
        <mxCell id="6e0c8c40b5770093-64" style="edgeStyle=elbowEdgeStyle;rounded=0;html=1;entryX=0.559;entryY=0.251;entryPerimeter=0;dashed=1;labelBackgroundColor=none;startFill=0;endArrow=open;endFill=0;endSize=10;fontFamily=Verdana;fontSize=10;" parent="1" source="6e0c8c40b5770093-42" target="6e0c8c40b5770093-44" edge="1">
          <mxGeometry relative="1" as="geometry" />
        </mxCell>
        <mxCell id="6e0c8c40b5770093-65" style="edgeStyle=none;rounded=0;html=1;dashed=1;labelBackgroundColor=none;startFill=0;endArrow=open;endFill=0;endSize=10;fontFamily=Verdana;fontSize=10;entryX=-0.003;entryY=0.411;entryPerimeter=0;" parent="1" source="6e0c8c40b5770093-42" target="6e0c8c40b5770093-45" edge="1">
          <mxGeometry relative="1" as="geometry" />
        </mxCell>
        <mxCell id="6e0c8c40b5770093-66" style="edgeStyle=none;rounded=0;html=1;dashed=1;labelBackgroundColor=none;startFill=0;endArrow=open;endFill=0;endSize=10;fontFamily=Verdana;fontSize=10;entryX=1.013;entryY=0.444;entryPerimeter=0;" parent="1" source="6e0c8c40b5770093-42" target="6e0c8c40b5770093-43" edge="1">
          <mxGeometry relative="1" as="geometry" />
        </mxCell>
        <mxCell id="6e0c8c40b5770093-42" value="package" style="shape=folder;fontStyle=1;spacingTop=10;tabWidth=50;tabHeight=17;tabPosition=left;html=1;rounded=0;shadow=0;comic=0;labelBackgroundColor=none;strokeColor=#000000;strokeWidth=1;fillColor=#ffffff;fontFamily=Verdana;fontSize=10;fontColor=#000000;align=center;" parent="1" vertex="1">
          <mxGeometry x="2891" y="480" width="112" height="70" as="geometry" />
        </mxCell>
        <mxCell id="6e0c8c40b5770093-43" value="package" style="shape=folder;fontStyle=1;spacingTop=10;tabWidth=50;tabHeight=17;tabPosition=left;html=1;rounded=0;shadow=0;comic=0;labelBackgroundColor=none;strokeColor=#000000;strokeWidth=1;fillColor=#ffffff;fontFamily=Verdana;fontSize=10;fontColor=#000000;align=center;" parent="1" vertex="1">
          <mxGeometry x="2727" y="580" width="112" height="70" as="geometry" />
        </mxCell>
        <mxCell id="6e0c8c40b5770093-44" value="package" style="shape=folder;fontStyle=1;spacingTop=10;tabWidth=50;tabHeight=17;tabPosition=left;html=1;rounded=0;shadow=0;comic=0;labelBackgroundColor=none;strokeColor=#000000;strokeWidth=1;fillColor=#ffffff;fontFamily=Verdana;fontSize=10;fontColor=#000000;align=center;" parent="1" vertex="1">
          <mxGeometry x="2891" y="580" width="112" height="70" as="geometry" />
        </mxCell>
        <mxCell id="6e0c8c40b5770093-45" value="package" style="shape=folder;fontStyle=1;spacingTop=10;tabWidth=50;tabHeight=17;tabPosition=left;html=1;rounded=0;shadow=0;comic=0;labelBackgroundColor=none;strokeColor=#000000;strokeWidth=1;fillColor=#ffffff;fontFamily=Verdana;fontSize=10;fontColor=#000000;align=center;" parent="1" vertex="1">
          <mxGeometry x="3043" y="580" width="112" height="70" as="geometry" />
        </mxCell>
        <mxCell id="6e0c8c40b5770093-68" style="edgeStyle=elbowEdgeStyle;rounded=0;html=1;entryX=0.628;entryY=0.26;entryPerimeter=0;dashed=1;labelBackgroundColor=none;startFill=0;endArrow=open;endFill=0;endSize=10;fontFamily=Verdana;fontSize=10;" parent="1" source="6e0c8c40b5770093-47" target="6e0c8c40b5770093-53" edge="1">
          <mxGeometry relative="1" as="geometry" />
        </mxCell>
        <mxCell id="6e0c8c40b5770093-69" style="edgeStyle=elbowEdgeStyle;rounded=0;html=1;entryX=0.643;entryY=0.246;entryPerimeter=0;dashed=1;labelBackgroundColor=none;startFill=0;endArrow=open;endFill=0;endSize=10;fontFamily=Verdana;fontSize=10;" parent="1" source="6e0c8c40b5770093-47" target="6e0c8c40b5770093-56" edge="1">
          <mxGeometry relative="1" as="geometry" />
        </mxCell>
        <mxCell id="6e0c8c40b5770093-70" style="edgeStyle=none;rounded=0;html=1;dashed=1;labelBackgroundColor=none;startFill=0;endArrow=open;endFill=0;endSize=10;fontFamily=Verdana;fontSize=10;exitX=1.003;exitY=0.363;exitPerimeter=0;" parent="1" source="6e0c8c40b5770093-47" target="6e0c8c40b5770093-25" edge="1">
          <mxGeometry relative="1" as="geometry" />
        </mxCell>
        <mxCell id="6e0c8c40b5770093-47" value="" style="shape=folder;fontStyle=1;spacingTop=10;tabWidth=123;tabHeight=24;tabPosition=left;html=1;rounded=0;shadow=0;comic=0;labelBackgroundColor=none;strokeWidth=1;fontFamily=Verdana;fontSize=10;align=center;" parent="1" vertex="1">
          <mxGeometry x="2797" y="730" width="332" height="130" as="geometry" />
        </mxCell>
        <mxCell id="6e0c8c40b5770093-48" value="" style="triangle;whiteSpace=wrap;html=1;rounded=0;shadow=0;comic=0;labelBackgroundColor=none;strokeWidth=1;fontFamily=Verdana;fontSize=10;align=center;rotation=-90;" parent="1" vertex="1">
          <mxGeometry x="2893" y="732" width="15" height="20" as="geometry" />
        </mxCell>
        <mxCell id="6e0c8c40b5770093-49" value="package" style="shape=folder;fontStyle=1;spacingTop=10;tabWidth=50;tabHeight=17;tabPosition=left;html=1;rounded=0;shadow=0;comic=0;labelBackgroundColor=none;strokeWidth=1;fontFamily=Verdana;fontSize=10;align=center;" parent="1" vertex="1">
          <mxGeometry x="2815" y="770" width="112" height="70" as="geometry" />
        </mxCell>
        <mxCell id="6e0c8c40b5770093-50" value="package" style="shape=folder;fontStyle=1;spacingTop=10;tabWidth=50;tabHeight=17;tabPosition=left;html=1;rounded=0;shadow=0;comic=0;labelBackgroundColor=none;strokeWidth=1;fontFamily=Verdana;fontSize=10;align=center;" parent="1" vertex="1">
          <mxGeometry x="2984" y="770" width="112" height="70" as="geometry" />
        </mxCell>
        <mxCell id="6e0c8c40b5770093-51" value="" style="triangle;whiteSpace=wrap;html=1;rounded=0;shadow=0;comic=0;labelBackgroundColor=none;strokeColor=#000000;strokeWidth=1;fillColor=#ffffff;fontFamily=Verdana;fontSize=10;fontColor=#000000;align=center;rotation=-90;" parent="1" vertex="1">
          <mxGeometry x="2782" y="432" width="15" height="20" as="geometry" />
        </mxCell>
        <mxCell id="6e0c8c40b5770093-52" value="" style="group" parent="1" vertex="1" connectable="0">
          <mxGeometry x="2820" y="910.0694795496323" width="130" height="70" as="geometry" />
        </mxCell>
        <mxCell id="6e0c8c40b5770093-53" value="package" style="shape=folder;fontStyle=1;spacingTop=10;tabWidth=50;tabHeight=17;tabPosition=left;html=1;rounded=0;shadow=0;comic=0;labelBackgroundColor=none;strokeWidth=1;fontFamily=Verdana;fontSize=10;align=center;" parent="6e0c8c40b5770093-52" vertex="1">
          <mxGeometry width="130" height="70" as="geometry" />
        </mxCell>
        <mxCell id="6e0c8c40b5770093-54" value="" style="triangle;whiteSpace=wrap;html=1;rounded=0;shadow=0;comic=0;labelBackgroundColor=none;strokeWidth=1;fontFamily=Verdana;fontSize=10;align=center;rotation=-90;" parent="6e0c8c40b5770093-52" vertex="1">
          <mxGeometry x="100" y="25" width="15" height="20" as="geometry" />
        </mxCell>
        <mxCell id="6e0c8c40b5770093-55" value="" style="group" parent="1" vertex="1" connectable="0">
          <mxGeometry x="2987" y="910.0694795496323" width="130" height="70" as="geometry" />
        </mxCell>
        <mxCell id="6e0c8c40b5770093-56" value="package" style="shape=folder;fontStyle=1;spacingTop=10;tabWidth=50;tabHeight=17;tabPosition=left;html=1;rounded=0;shadow=0;comic=0;labelBackgroundColor=none;strokeWidth=1;fontFamily=Verdana;fontSize=10;align=center;" parent="6e0c8c40b5770093-55" vertex="1">
          <mxGeometry width="130" height="70" as="geometry" />
        </mxCell>
        <mxCell id="6e0c8c40b5770093-57" value="" style="triangle;whiteSpace=wrap;html=1;rounded=0;shadow=0;comic=0;labelBackgroundColor=none;strokeWidth=1;fontFamily=Verdana;fontSize=10;align=center;rotation=-90;" parent="6e0c8c40b5770093-55" vertex="1">
          <mxGeometry x="100" y="25" width="15" height="20" as="geometry" />
        </mxCell>
        <mxCell id="6e0c8c40b5770093-58" style="rounded=0;html=1;dashed=1;labelBackgroundColor=none;startFill=0;endArrow=open;endFill=0;endSize=10;fontFamily=Verdana;fontSize=10;entryX=0.592;entryY=0.2;entryPerimeter=0;edgeStyle=elbowEdgeStyle;" parent="1" source="6e0c8c40b5770093-4" target="6e0c8c40b5770093-11" edge="1">
          <mxGeometry relative="1" as="geometry" />
        </mxCell>
        <mxCell id="6e0c8c40b5770093-59" style="rounded=0;html=1;dashed=1;labelBackgroundColor=none;startFill=0;endArrow=open;endFill=0;endSize=10;fontFamily=Verdana;fontSize=10;entryX=0.592;entryY=0.2;entryPerimeter=0;edgeStyle=elbowEdgeStyle;" parent="1" edge="1">
          <mxGeometry relative="1" as="geometry">
            <mxPoint x="3086.8275862068967" y="200" as="sourcePoint" />
            <mxPoint x="3086.8275862068967" y="276.34482758620686" as="targetPoint" />
          </mxGeometry>
        </mxCell>
        <mxCell id="6e0c8c40b5770093-60" style="rounded=0;html=1;entryX=0.452;entryY=0.1;entryPerimeter=0;dashed=1;labelBackgroundColor=none;startFill=0;endArrow=open;endFill=0;endSize=10;fontFamily=Verdana;fontSize=10;" parent="1" source="6e0c8c40b5770093-11" target="6e0c8c40b5770093-33" edge="1">
          <mxGeometry relative="1" as="geometry" />
        </mxCell>
        <mxCell id="6e0c8c40b5770093-61" style="edgeStyle=none;rounded=0;html=1;entryX=0.69;entryY=0.102;entryPerimeter=0;dashed=1;labelBackgroundColor=none;startFill=0;endArrow=open;endFill=0;endSize=10;fontFamily=Verdana;fontSize=10;" parent="1" source="6e0c8c40b5770093-20" target="6e0c8c40b5770093-33" edge="1">
          <mxGeometry relative="1" as="geometry" />
        </mxCell>
        <mxCell id="6e0c8c40b5770093-62" style="edgeStyle=none;rounded=0;html=1;dashed=1;labelBackgroundColor=none;startFill=0;endArrow=open;endFill=0;endSize=10;fontFamily=Verdana;fontSize=10;exitX=1.002;exitY=0.668;exitPerimeter=0;" parent="1" source="6e0c8c40b5770093-20" target="6e0c8c40b5770093-25" edge="1">
          <mxGeometry relative="1" as="geometry" />
        </mxCell>
        <mxCell id="6e0c8c40b5770093-63" style="edgeStyle=orthogonalEdgeStyle;rounded=0;html=1;dashed=1;labelBackgroundColor=none;startFill=0;endArrow=open;endFill=0;endSize=10;fontFamily=Verdana;fontSize=10;" parent="1" source="6e0c8c40b5770093-11" target="6e0c8c40b5770093-25" edge="1">
          <mxGeometry relative="1" as="geometry">
            <Array as="points">
              <mxPoint x="2909" y="315" />
              <mxPoint x="2909" y="420" />
            </Array>
          </mxGeometry>
        </mxCell>
        <mxCell id="6e0c8c40b5770093-73" value="&amp;lt;&amp;lt;model&amp;gt;&amp;gt;" style="text;html=1;align=left;verticalAlign=top;spacingTop=-4;fontSize=10;fontFamily=Verdana" parent="1" vertex="1">
          <mxGeometry x="2571" y="70" width="130" height="20" as="geometry" />
        </mxCell>
        <mxCell id="4CD3zQgoziDDlTWU8RXA-10" style="edgeStyle=orthogonalEdgeStyle;rounded=0;orthogonalLoop=1;jettySize=auto;html=1;exitX=0;exitY=0.5;exitDx=0;exitDy=0;entryX=0.5;entryY=0;entryDx=0;entryDy=0;" edge="1" parent="1" source="4CD3zQgoziDDlTWU8RXA-2" target="4CD3zQgoziDDlTWU8RXA-7">
          <mxGeometry relative="1" as="geometry" />
        </mxCell>
        <mxCell id="4CD3zQgoziDDlTWU8RXA-15" style="edgeStyle=orthogonalEdgeStyle;rounded=0;orthogonalLoop=1;jettySize=auto;html=1;exitX=1;exitY=0.5;exitDx=0;exitDy=0;entryX=0.5;entryY=0;entryDx=0;entryDy=0;" edge="1" parent="1" source="4CD3zQgoziDDlTWU8RXA-2" target="4CD3zQgoziDDlTWU8RXA-13">
          <mxGeometry relative="1" as="geometry" />
        </mxCell>
        <mxCell id="4CD3zQgoziDDlTWU8RXA-2" value="Login/Register" style="rhombus;whiteSpace=wrap;html=1;fontSize=20;" vertex="1" parent="1">
          <mxGeometry x="1350" y="340" width="220" height="130" as="geometry" />
        </mxCell>
        <mxCell id="4CD3zQgoziDDlTWU8RXA-6" value="" style="edgeStyle=orthogonalEdgeStyle;rounded=0;orthogonalLoop=1;jettySize=auto;html=1;" edge="1" parent="1" source="4CD3zQgoziDDlTWU8RXA-4" target="4CD3zQgoziDDlTWU8RXA-2">
          <mxGeometry relative="1" as="geometry" />
        </mxCell>
        <mxCell id="4CD3zQgoziDDlTWU8RXA-4" value="Start" style="ellipse;whiteSpace=wrap;html=1;fontSize=20;" vertex="1" parent="1">
          <mxGeometry x="1390" y="230" width="140" height="70" as="geometry" />
        </mxCell>
        <mxCell id="4CD3zQgoziDDlTWU8RXA-11" value="" style="edgeStyle=orthogonalEdgeStyle;rounded=0;orthogonalLoop=1;jettySize=auto;html=1;" edge="1" parent="1" source="4CD3zQgoziDDlTWU8RXA-7" target="4CD3zQgoziDDlTWU8RXA-9">
          <mxGeometry relative="1" as="geometry" />
        </mxCell>
        <mxCell id="4CD3zQgoziDDlTWU8RXA-7" value="Login" style="rounded=1;whiteSpace=wrap;html=1;fontSize=20;" vertex="1" parent="1">
          <mxGeometry x="1190" y="470" width="150" height="60" as="geometry" />
        </mxCell>
        <mxCell id="4CD3zQgoziDDlTWU8RXA-18" style="edgeStyle=orthogonalEdgeStyle;rounded=0;orthogonalLoop=1;jettySize=auto;html=1;exitX=0.5;exitY=1;exitDx=0;exitDy=0;entryX=0.5;entryY=0;entryDx=0;entryDy=0;" edge="1" parent="1" source="4CD3zQgoziDDlTWU8RXA-9" target="4CD3zQgoziDDlTWU8RXA-17">
          <mxGeometry relative="1" as="geometry" />
        </mxCell>
        <mxCell id="4CD3zQgoziDDlTWU8RXA-9" value="&lt;font style=&quot;font-size: 16px;&quot;&gt;Enter required&amp;nbsp;details and login into app&lt;/font&gt;" style="rounded=1;whiteSpace=wrap;html=1;fontSize=20;align=center;" vertex="1" parent="1">
          <mxGeometry x="1186.25" y="570" width="157.5" height="70" as="geometry" />
        </mxCell>
        <mxCell id="4CD3zQgoziDDlTWU8RXA-12" value="" style="edgeStyle=orthogonalEdgeStyle;rounded=0;orthogonalLoop=1;jettySize=auto;html=1;" edge="1" parent="1" source="4CD3zQgoziDDlTWU8RXA-13" target="4CD3zQgoziDDlTWU8RXA-14">
          <mxGeometry relative="1" as="geometry" />
        </mxCell>
        <mxCell id="4CD3zQgoziDDlTWU8RXA-13" value="Register" style="rounded=1;whiteSpace=wrap;html=1;fontSize=20;" vertex="1" parent="1">
          <mxGeometry x="1582" y="470" width="150" height="60" as="geometry" />
        </mxCell>
        <mxCell id="4CD3zQgoziDDlTWU8RXA-16" style="edgeStyle=orthogonalEdgeStyle;rounded=0;orthogonalLoop=1;jettySize=auto;html=1;exitX=0;exitY=0.5;exitDx=0;exitDy=0;entryX=1;entryY=0.5;entryDx=0;entryDy=0;" edge="1" parent="1" source="4CD3zQgoziDDlTWU8RXA-14" target="4CD3zQgoziDDlTWU8RXA-7">
          <mxGeometry relative="1" as="geometry" />
        </mxCell>
        <mxCell id="4CD3zQgoziDDlTWU8RXA-14" value="&lt;font style=&quot;font-size: 16px;&quot;&gt;Create new account&lt;/font&gt;" style="rounded=1;whiteSpace=wrap;html=1;fontSize=20;" vertex="1" parent="1">
          <mxGeometry x="1584.5" y="570" width="145" height="70" as="geometry" />
        </mxCell>
        <mxCell id="4CD3zQgoziDDlTWU8RXA-22" value="" style="edgeStyle=orthogonalEdgeStyle;rounded=0;orthogonalLoop=1;jettySize=auto;html=1;" edge="1" parent="1" source="4CD3zQgoziDDlTWU8RXA-17" target="4CD3zQgoziDDlTWU8RXA-19">
          <mxGeometry relative="1" as="geometry" />
        </mxCell>
        <mxCell id="4CD3zQgoziDDlTWU8RXA-29" value="" style="edgeStyle=orthogonalEdgeStyle;rounded=0;orthogonalLoop=1;jettySize=auto;html=1;" edge="1" parent="1" source="4CD3zQgoziDDlTWU8RXA-17" target="4CD3zQgoziDDlTWU8RXA-28">
          <mxGeometry relative="1" as="geometry" />
        </mxCell>
        <mxCell id="4CD3zQgoziDDlTWU8RXA-17" value="&lt;font style=&quot;font-size: 20px;&quot;&gt;Home&lt;/font&gt;" style="rounded=1;whiteSpace=wrap;html=1;" vertex="1" parent="1">
          <mxGeometry x="1260" y="681" width="160" height="80" as="geometry" />
        </mxCell>
        <mxCell id="4CD3zQgoziDDlTWU8RXA-23" value="" style="edgeStyle=orthogonalEdgeStyle;rounded=0;orthogonalLoop=1;jettySize=auto;html=1;" edge="1" parent="1" source="4CD3zQgoziDDlTWU8RXA-19" target="4CD3zQgoziDDlTWU8RXA-17">
          <mxGeometry relative="1" as="geometry" />
        </mxCell>
        <mxCell id="4CD3zQgoziDDlTWU8RXA-24" value="" style="edgeStyle=orthogonalEdgeStyle;rounded=0;orthogonalLoop=1;jettySize=auto;html=1;" edge="1" parent="1" source="4CD3zQgoziDDlTWU8RXA-19" target="4CD3zQgoziDDlTWU8RXA-20">
          <mxGeometry relative="1" as="geometry" />
        </mxCell>
        <mxCell id="4CD3zQgoziDDlTWU8RXA-35" value="" style="edgeStyle=orthogonalEdgeStyle;rounded=0;orthogonalLoop=1;jettySize=auto;html=1;" edge="1" parent="1" source="4CD3zQgoziDDlTWU8RXA-19" target="4CD3zQgoziDDlTWU8RXA-32">
          <mxGeometry relative="1" as="geometry">
            <Array as="points">
              <mxPoint x="1450" y="850" />
              <mxPoint x="1450" y="850" />
            </Array>
          </mxGeometry>
        </mxCell>
        <mxCell id="4CD3zQgoziDDlTWU8RXA-36" style="edgeStyle=orthogonalEdgeStyle;rounded=0;orthogonalLoop=1;jettySize=auto;html=1;exitX=1;exitY=0.75;exitDx=0;exitDy=0;" edge="1" parent="1" source="4CD3zQgoziDDlTWU8RXA-19" target="4CD3zQgoziDDlTWU8RXA-37">
          <mxGeometry relative="1" as="geometry">
            <mxPoint x="1520" y="960" as="targetPoint" />
            <Array as="points">
              <mxPoint x="1420" y="860" />
              <mxPoint x="1490" y="860" />
              <mxPoint x="1490" y="960" />
            </Array>
          </mxGeometry>
        </mxCell>
        <mxCell id="4CD3zQgoziDDlTWU8RXA-38" style="edgeStyle=orthogonalEdgeStyle;rounded=0;orthogonalLoop=1;jettySize=auto;html=1;exitX=1;exitY=0.75;exitDx=0;exitDy=0;" edge="1" parent="1" source="4CD3zQgoziDDlTWU8RXA-19" target="4CD3zQgoziDDlTWU8RXA-39">
          <mxGeometry relative="1" as="geometry">
            <mxPoint x="1450" y="1030" as="targetPoint" />
            <Array as="points">
              <mxPoint x="1420" y="870" />
              <mxPoint x="1470" y="870" />
              <mxPoint x="1470" y="1040" />
            </Array>
          </mxGeometry>
        </mxCell>
        <mxCell id="4CD3zQgoziDDlTWU8RXA-40" style="edgeStyle=orthogonalEdgeStyle;rounded=0;orthogonalLoop=1;jettySize=auto;html=1;exitX=1;exitY=0.75;exitDx=0;exitDy=0;" edge="1" parent="1" source="4CD3zQgoziDDlTWU8RXA-19" target="4CD3zQgoziDDlTWU8RXA-41">
          <mxGeometry relative="1" as="geometry">
            <mxPoint x="1450" y="1100" as="targetPoint" />
            <Array as="points">
              <mxPoint x="1450" y="890" />
              <mxPoint x="1450" y="1120" />
            </Array>
          </mxGeometry>
        </mxCell>
        <mxCell id="4CD3zQgoziDDlTWU8RXA-19" value="&lt;font style=&quot;font-size: 20px;&quot;&gt;Explore&lt;/font&gt;" style="rounded=1;whiteSpace=wrap;html=1;" vertex="1" parent="1">
          <mxGeometry x="1260" y="830" width="160" height="80" as="geometry" />
        </mxCell>
        <mxCell id="4CD3zQgoziDDlTWU8RXA-26" value="" style="edgeStyle=orthogonalEdgeStyle;rounded=0;orthogonalLoop=1;jettySize=auto;html=1;" edge="1" parent="1" source="4CD3zQgoziDDlTWU8RXA-20" target="4CD3zQgoziDDlTWU8RXA-21">
          <mxGeometry relative="1" as="geometry" />
        </mxCell>
        <mxCell id="4CD3zQgoziDDlTWU8RXA-27" value="" style="edgeStyle=orthogonalEdgeStyle;rounded=0;orthogonalLoop=1;jettySize=auto;html=1;" edge="1" parent="1" source="4CD3zQgoziDDlTWU8RXA-20" target="4CD3zQgoziDDlTWU8RXA-19">
          <mxGeometry relative="1" as="geometry" />
        </mxCell>
        <mxCell id="4CD3zQgoziDDlTWU8RXA-20" value="&lt;font style=&quot;font-size: 20px;&quot;&gt;Analytics&lt;/font&gt;" style="rounded=1;whiteSpace=wrap;html=1;" vertex="1" parent="1">
          <mxGeometry x="1260" y="1210" width="160" height="80" as="geometry" />
        </mxCell>
        <mxCell id="4CD3zQgoziDDlTWU8RXA-25" value="" style="edgeStyle=orthogonalEdgeStyle;rounded=0;orthogonalLoop=1;jettySize=auto;html=1;" edge="1" parent="1" source="4CD3zQgoziDDlTWU8RXA-21" target="4CD3zQgoziDDlTWU8RXA-20">
          <mxGeometry relative="1" as="geometry" />
        </mxCell>
        <mxCell id="4CD3zQgoziDDlTWU8RXA-21" value="&lt;font style=&quot;font-size: 20px;&quot;&gt;Profile&lt;/font&gt;" style="rounded=1;whiteSpace=wrap;html=1;" vertex="1" parent="1">
          <mxGeometry x="1260" y="1319.93" width="160" height="80" as="geometry" />
        </mxCell>
        <mxCell id="4CD3zQgoziDDlTWU8RXA-31" value="" style="edgeStyle=orthogonalEdgeStyle;rounded=0;orthogonalLoop=1;jettySize=auto;html=1;" edge="1" parent="1" source="4CD3zQgoziDDlTWU8RXA-28" target="4CD3zQgoziDDlTWU8RXA-30">
          <mxGeometry relative="1" as="geometry" />
        </mxCell>
        <mxCell id="4CD3zQgoziDDlTWU8RXA-28" value="&lt;font style=&quot;font-size: 16px;&quot;&gt;Current working progress&lt;/font&gt;" style="whiteSpace=wrap;html=1;rounded=1;fontSize=20;" vertex="1" parent="1">
          <mxGeometry x="1520" y="681" width="150" height="79" as="geometry" />
        </mxCell>
        <mxCell id="4CD3zQgoziDDlTWU8RXA-30" value="&lt;font style=&quot;font-size: 16px;&quot;&gt;Leader board of friends&lt;/font&gt;" style="whiteSpace=wrap;html=1;rounded=1;fontSize=20;" vertex="1" parent="1">
          <mxGeometry x="1710" y="682" width="150" height="79" as="geometry" />
        </mxCell>
        <mxCell id="4CD3zQgoziDDlTWU8RXA-32" value="Fitness Tracker" style="whiteSpace=wrap;html=1;rounded=1;fontSize=16;" vertex="1" parent="1">
          <mxGeometry x="1520" y="820" width="140" height="70" as="geometry" />
        </mxCell>
        <mxCell id="4CD3zQgoziDDlTWU8RXA-37" value="&lt;font&gt;Injury Management&lt;/font&gt;" style="rounded=1;whiteSpace=wrap;html=1;fontSize=16;" vertex="1" parent="1">
          <mxGeometry x="1521.25" y="910" width="140" height="70" as="geometry" />
        </mxCell>
        <mxCell id="4CD3zQgoziDDlTWU8RXA-39" value="Tournaments &amp;amp; Opportunities" style="rounded=1;whiteSpace=wrap;html=1;fontSize=16;" vertex="1" parent="1">
          <mxGeometry x="1525" y="1000" width="135" height="60" as="geometry" />
        </mxCell>
        <mxCell id="4CD3zQgoziDDlTWU8RXA-41" value="Financial &amp;amp; Achievements" style="rounded=1;whiteSpace=wrap;html=1;fontSize=16;" vertex="1" parent="1">
          <mxGeometry x="1523.75" y="1080" width="137.5" height="60" as="geometry" />
        </mxCell>
      </root>
    </mxGraphModel>
  </diagram>
</mxfile>
